<svg width="35" height="25" viewBox="0 0 58 37" fill="white" xmlns="http://www.w3.org/2000/svg">
<path fill-rule="evenodd" clip-rule="evenodd" d="M3.5 0C1.567 0 0 1.567 0 3.5C0 5.433 1.567 7 3.5 7H54.5C56.433 7 58 5.433 58 3.5C58 1.567 56.433 0 54.5 0H3.5ZM0 18.5C0 16.567 1.567 15 3.5 15H54.5C56.433 15 58 16.567 58 18.5C58 20.433 56.433 22 54.5 22H3.5C1.567 22 0 20.433 0 18.5ZM0 33.5C0 31.567 1.567 30 3.5 30H54.5C56.433 30 58 31.567 58 33.5C58 35.433 56.433 37 54.5 37H3.5C1.567 37 0 35.433 0 33.5Z" fill="white"/>
</svg>
